# xmcd
#
# Track frame offsets: 
#        150
#        25065
#        46693
#        68623
#        84293
#        107045
#        125070
#        145375
#        166063
#        188618
#        212225
#        233433
#        256098
#        278580
#
# Disc length: 4000 seconds
#
# Revision: 2
# Processed by: cddbd v1.5.1PL0 Copyright (c) Steve Scherf et al.
# Submitted via: ExactAudioCopy v0.95a5
#
DISCID=ae0f9e0e
DTITLE=Boyz II Men - Evolution
DYEAR=1997
DGENRE=R&B
TTITLE0=Doin' Just Fine
TTITLE1=Never
TTITLE2=4 Seasons Of Loneliness
TTITLE3=Girl In The Life Magazine
TTITLE4=A Song For Mama
TTITLE5=Can You Stand In The Rain
TTITLE6=Can't Let Her Go
TTITLE7=Baby C'mon
TTITLE8=Come On
TTITLE9=All Night Long
TTITLE10=Human II (Don't Turn Your Back On Me)
TTITLE11=To The Limit
TTITLE12=Dear God
TTITLE13=14
EXTD=
EXTT0=
EXTT1=
EXTT2=
EXTT3=
EXTT4=
EXTT5=
EXTT6=
EXTT7=
EXTT8=
EXTT9=
EXTT10=
EXTT11=
EXTT12=
EXTT13=
PLAYORDER=
